<svg width="407" height="381" viewBox="0 0 407 381" fill="none" xmlns="http://www.w3.org/2000/svg">
<path d="M330.137 151.858C323.784 151.858 316.948 150.677 311.259 147.919C295.225 140.144 286.123 117.066 285.745 116.087L287.096 115.562C287.189 115.795 296.375 139.089 311.892 146.614C322.137 151.58 337.104 151.244 344.651 147.814C352.532 144.234 364.159 128.592 358.294 111.464C350.498 88.7035 366.726 80.6615 366.891 80.5831L367.517 81.8919C366.891 82.1915 352.301 89.4916 359.666 110.994C365.814 128.94 353.55 145.366 345.252 149.135C341.495 150.844 336.022 151.858 330.137 151.858Z" fill="#16243F"/>
<path d="M335.521 279.614C334.701 267.331 319.733 243.05 268.825 229.959C239.648 222.457 207.171 233.524 175.756 244.225C152.821 252.037 131.149 259.394 112.265 259.007C67.77 258.041 45.8354 228.331 43.835 199.316C42.5282 180.377 47.6389 167.467 53.0471 153.802C55.7573 146.956 58.5599 139.879 60.7876 131.6C67.386 107.092 50.2204 86.0237 50.0454 85.8125L51.1633 84.8857C51.3422 85.1028 68.9804 106.75 62.1889 131.976C59.9371 140.335 57.1224 147.453 54.3962 154.335C49.0502 167.845 43.9998 180.606 45.2825 199.218C47.2368 227.574 68.717 256.609 112.295 257.556C130.916 257.954 152.477 250.622 175.29 242.851C206.905 232.083 239.598 220.944 269.189 228.555C314.437 240.191 335.837 262.536 336.969 279.517L335.521 279.614Z" fill="#16243F"/>
<path d="M169.97 362.629V351.732H210.265V308.757H220.794C228.086 308.757 233.999 302.845 233.999 295.552V295.285C233.999 287.991 228.086 282.078 220.794 282.078H210.265V241.972H100.505V284.366H90.1812C82.8871 284.366 76.9742 290.279 76.9742 297.571V297.838C76.9742 305.133 82.8871 311.043 90.1812 311.043H100.505V351.732H143.291V362.629C143.291 369.923 149.204 375.836 156.496 375.836H156.763C164.057 375.836 169.97 369.923 169.97 362.629Z" fill="#274597"/>
<path d="M169.97 256.677V241.972H210.265V197.468H223.08C230.374 197.468 236.285 191.555 236.285 184.263V183.996C236.285 176.701 230.374 170.79 223.08 170.79H210.265V132.215H100.505V174.982H113.314C120.608 174.982 126.521 180.895 126.521 188.187V188.455C126.521 195.748 120.608 201.66 113.314 201.66H100.505V241.972H143.291V256.677C143.291 263.969 149.204 269.882 156.496 269.882H156.763C164.057 269.882 169.97 263.969 169.97 256.677Z" fill="#5C87CD"/>
<path d="M167.529 22.214V13.2049C167.529 5.91081 161.616 -6.48499e-05 154.322 -6.48499e-05H154.057C146.763 -6.48499e-05 140.85 5.91081 140.85 13.2049V22.214H126.368V22.8674H189.635V22.214H167.529Z" fill="#FCD190"/>
<path d="M217.971 64.4108H209.748V22.2143H167.529V13.2052C167.529 5.91111 161.617 0.000228882 154.322 0.000228882H154.057C146.763 0.000228882 140.85 5.91111 140.85 13.2052V22.2143H99.9885V64.4108H90.4084C83.1142 64.4108 77.2034 70.3217 77.2034 77.6158V77.8832C77.2034 85.1773 83.1142 91.0882 90.4084 91.0882H99.9885V131.974H209.748V91.0882H217.971C225.265 91.0882 231.178 85.1773 231.178 77.8832V77.6158C231.178 70.3217 225.265 64.4108 217.971 64.4108Z" fill="#EFB50D"/>
<path d="M215.118 30.9439L225.697 60.3596C226.146 61.6081 227.312 62.4546 228.637 62.4968L259.884 63.4678C262.912 63.5623 264.158 67.3964 261.764 69.2521L237.055 88.4042C236.007 89.2164 235.563 90.5876 235.933 91.8602L244.665 121.877C245.511 124.786 242.25 127.155 239.745 125.452L213.894 107.872C212.798 107.126 211.357 107.126 210.261 107.872L184.41 125.452C181.905 127.155 178.646 124.786 179.49 121.877L188.222 91.8602C188.592 90.5876 188.147 89.2164 187.1 88.4042L162.391 69.2521C159.998 67.3964 161.243 63.5623 164.27 63.4678L195.518 62.4968C196.843 62.4546 198.009 61.6081 198.457 60.3596L209.036 30.9439C210.062 28.093 214.093 28.093 215.118 30.9439Z" fill="#16243F"/>
<path d="M305.364 64.4108H319.506V22.2143H275.007V13.2052C275.007 5.91111 269.094 0.000228882 261.802 0.000228882H261.535C254.241 0.000228882 248.328 5.91111 248.328 13.2052V22.2143H209.748V131.974H259.761V124.495C259.761 117.201 265.674 111.288 272.968 111.288H273.236C280.528 111.288 286.441 117.201 286.441 124.495V131.974H319.506V91.0882H305.364C298.07 91.0882 292.159 85.1773 292.159 77.8832V77.6158C292.159 70.3217 298.07 64.4108 305.364 64.4108Z" fill="#F14449"/>
<path d="M340.771 71.3889C344.237 77.7703 341.871 85.754 335.489 89.2181C329.106 92.6822 321.124 90.3178 317.66 83.9345C314.196 77.5531 316.56 69.5694 322.942 66.1053C329.325 62.6412 337.307 65.0056 340.771 71.3889Z" fill="#5C87CD"/>
<path d="M94.5239 85.7119C91.6891 93.0784 83.4199 96.7516 76.0514 93.9168C68.6849 91.08 65.0117 82.8108 67.8465 75.4443C70.6833 68.0778 78.9526 64.4046 86.3191 67.2394C93.6856 70.0742 97.3587 78.3434 94.5239 85.7119Z" fill="#5C87CD"/>
<path d="M215.118 30.9439L225.697 60.3596C226.146 61.6081 227.312 62.4546 228.637 62.4968L259.884 63.4678C262.912 63.5623 264.158 67.3964 261.764 69.2521L237.055 88.4042C236.007 89.2164 235.563 90.5876 235.933 91.8602L244.665 121.877C245.511 124.786 242.25 127.155 239.745 125.452L213.894 107.872C212.798 107.126 211.357 107.126 210.261 107.872L184.41 125.452C181.905 127.155 178.646 124.786 179.49 121.877L188.222 91.8602C188.592 90.5876 188.147 89.2164 187.1 88.4042L162.391 69.2521C159.998 67.3964 161.243 63.5623 164.27 63.4678L195.518 62.4968C196.843 62.4546 198.009 61.6081 198.457 60.3596L209.036 30.9439C210.062 28.093 214.093 28.093 215.118 30.9439Z" fill="#16243F"/>
<path d="M78.669 76.2404L77.8166 84.0271L67.6876 84.8776L69.0246 73.4478L78.669 76.2404Z" fill="#16243F"/>
<path d="M5.69978 79.5376L2.27991 78.8601L0 90.3602C0 90.3602 2.23568 91.6329 3.71139 87.7787C5.18509 83.9266 5.88878 82.1694 5.88878 82.1694L5.69978 79.5376Z" fill="#16243F"/>
<path d="M100.742 60.1423C100.742 60.1423 104.55 61.7728 105.316 58.9903C106.08 56.2098 101.149 55.3895 101.149 55.3895L100.742 60.1423Z" fill="#16243F"/>
<path d="M30.2019 41.2855L32.2546 38.4688L22.7831 31.5607C22.7831 31.5607 20.6881 33.0525 23.5632 36.012C26.4382 38.9714 27.735 40.3486 27.735 40.3486L30.2019 41.2855Z" fill="#16243F"/>
<path d="M38.4891 103.911L41.6355 87.2156L42.7936 74.644L52.9768 71.2744C50.9924 69.093 44.0039 66.7929 43.5455 66.4974L23.5812 60.5242C24.2004 59.4325 25.9476 55.7814 26.3135 54.5811C28.4104 47.6851 30.4632 40.8554 30.4632 40.8554L25.3504 37.7773C25.3504 37.7773 13.1266 60.5644 14.1238 63.4756C14.9843 65.9928 29.866 72.8224 31.9891 76.7972C33.5392 79.6984 30.9095 93.6935 30.9095 93.6935C30.9095 93.6935 24.0114 86.3934 20.6499 84.5397C17.3104 82.696 5.19914 79.4812 5.19914 79.4812L4.55981 85.4142L34.6028 105.541C36.1087 106.551 38.1554 105.692 38.4891 103.911Z" fill="#16243F"/>
<path d="M59.2375 67.969C62.8806 72.6354 62.8565 77.6978 70.1888 73.0717C76.349 69.1833 81.5783 62.8402 83.3676 62.2049C85.159 61.5695 100.505 60.6789 100.505 60.6789L101.149 55.3893L83.5647 54.6655C82.2739 54.7117 81.5602 54.9248 80.7982 55.2465L68.8417 62.4582L59.2375 67.969Z" fill="#16243F"/>
<path d="M102.556 54.7723L101.707 62.0804L98.7238 61.7326L99.5742 54.4244L102.556 54.7723Z" fill="#5C87CD"/>
<path d="M96.5567 103.662C96.5567 103.662 100.606 102.787 100.827 105.662C101.046 108.539 96.05 108.405 96.05 108.405L96.5567 103.662Z" fill="#16243F"/>
<path d="M57.3055 88.064C61.7689 84.1797 62.7118 79.2057 69.0268 85.1427C74.3345 90.1348 78.257 97.3586 79.8936 98.3236C81.5301 99.2887 96.426 103.089 96.426 103.089L96.05 108.404L78.6491 105.762C77.3925 105.471 76.7331 105.125 76.0455 104.665L65.6833 95.3079L57.3055 88.064Z" fill="#16243F"/>
<path d="M97.3145 109.279L97.8714 101.941L94.8778 101.714L94.3188 109.05L97.3145 109.279Z" fill="#5C87CD"/>
<path d="M70.7457 86.3131L72.0606 72.6377C72.3742 69.3887 69.8249 66.574 66.5599 66.5639L43.5456 66.4976L41.5592 87.1415L64.2438 91.2369C67.4344 91.8139 70.4341 89.54 70.7457 86.3131Z" fill="#16243F"/>
<path d="M73.1763 80.3738L39.2953 77.1147L39.434 75.6712L73.3151 78.9302L73.1763 80.3738Z" fill="#274597"/>
<path d="M81.3069 86.4255C77.9574 86.1038 73.4338 82.9272 73.7575 79.5777C74.0792 76.2262 79.1235 73.9704 82.4751 74.2941C85.8246 74.6158 88.2794 77.5934 87.9577 80.9429C87.636 84.2924 84.6585 86.7472 81.3069 86.4255Z" fill="#F4A277"/>
<path d="M72.5331 75.8684C72.5331 75.8684 80.9571 74.6702 82.1473 76.353C83.233 77.889 81.522 79.1757 81.522 79.1757C81.522 79.1757 81.2989 90.2456 83.0279 91.4297C84.391 92.3626 91.0197 82.0427 90.9734 80.4282C90.9272 78.8158 87.0911 70.6009 85.6255 70.1586C84.1598 69.7163 78.267 73.4739 78.267 73.4739L72.5331 75.8684Z" fill="#292B6C"/>
<path d="M379.632 93.0785L364.37 82.8028L363.96 73.3012L355.854 70.4724C357.472 68.7514 363.093 67.0002 363.465 66.771L381.369 62.7822C380.888 61.8996 378.691 59.9253 377.702 56.2682C376.198 50.697 375.114 48.0894 375.114 48.0894L378.58 46.2719C378.58 46.2719 387.891 62.4223 387.057 64.7384C386.333 66.7409 375.663 73.2951 372.581 75.1669C371.759 75.6655 372.181 77.0065 372.539 77.2558L383.249 89.1258C383.249 89.1258 388.878 87.7547 392.443 88.3136C398.143 89.2083 402.519 89.6526 402.519 89.6526L403.635 93.9511L384.073 94.3894C382.495 94.4054 380.949 93.9491 379.632 93.0785Z" fill="#16243F"/>
<path d="M402.119 89.6905L404.866 89.1919L406.538 98.4281C406.538 98.4281 404.733 99.4173 403.603 96.3131C402.473 93.2089 402.119 89.6905 402.119 89.6905Z" fill="#16243F"/>
<path d="M317.767 60.9344C317.767 60.9344 314.697 62.1889 314.122 59.9512C313.547 57.7156 317.503 57.1245 317.503 57.1245L317.767 60.9344Z" fill="#16243F"/>
<path d="M375.394 48.8975L373.711 46.1551L381.385 40.7489C381.385 40.7489 383.042 41.9713 380.701 44.3035C378.361 46.6336 375.394 48.8975 375.394 48.8975Z" fill="#16243F"/>
<path d="M350.886 67.7438C347.908 71.4311 347.862 75.4823 342.053 71.6844C337.172 68.4917 333.071 63.3448 331.647 62.8121C330.222 62.2813 317.95 61.3665 317.95 61.3665L317.503 57.1244L331.589 56.7745C332.62 56.8308 333.189 57.0098 333.794 57.2772L343.27 63.2061L350.886 67.7438Z" fill="#16243F"/>
<path d="M316.385 56.6118L316.968 62.4724L319.361 62.2352L318.778 56.3725L316.385 56.6118Z" fill="#151930"/>
<path d="M320.545 95.8225C320.545 95.8225 317.316 95.0706 317.103 97.3686C316.888 99.6686 320.889 99.6264 320.889 99.6264L320.545 95.8225Z" fill="#16243F"/>
<path d="M352.168 83.8541C348.646 80.6855 347.956 76.6926 342.826 81.363C338.511 85.2875 335.276 91.0195 333.953 91.7694C332.63 92.5213 320.66 95.3662 320.66 95.3662L320.889 99.6265L334.852 97.7406C335.863 97.5215 336.394 97.2541 336.951 96.8942L345.369 89.5418L352.168 83.8541Z" fill="#16243F"/>
<path d="M319.866 100.31L319.516 94.4293L321.916 94.2866L322.266 100.165L319.866 100.31Z" fill="#151930"/>
<path d="M341.434 82.2758L340.56 71.3126C340.352 68.7069 341.43 64.7583 344.044 64.7925L356.569 69.5554C356.569 69.5554 360.429 67.6554 368.204 65.6027C370.671 64.9533 367.434 69.4569 368.276 75.3215C369.123 81.2244 374.022 88.4823 368.634 85.9691C365.886 84.6864 357.255 81.7712 357.255 81.7712L346.39 87.2177C343.829 87.6379 341.639 84.8634 341.434 82.2758Z" fill="#16243F"/>
<path d="M343.529 78.1263L343.403 76.6808L369.175 74.4009L369.302 75.8464L343.529 78.1263Z" fill="#274597"/>
<path d="M337.281 74.6804L334.546 81.49L342.826 81.3633L343.141 73.3555L337.281 74.6804Z" fill="#16243F"/>
<path d="M332.873 82.5795C335.56 82.3664 339.223 79.8835 339.008 77.1974C338.794 74.5114 334.786 72.6396 332.099 72.8527C329.413 73.0678 327.409 75.4181 327.624 78.1042C327.837 80.7902 330.187 82.7927 332.873 82.5795Z" fill="#F4A277"/>
<path d="M337.779 74.8832L335.141 75.0923C335.141 75.0923 333.072 73.327 331.764 74.0749C330.457 74.8228 331.943 76.3126 331.943 76.3126C331.943 76.3126 332.831 85.6353 331.432 86.5622C330.328 87.29 325.157 78.9424 325.215 77.6516C325.274 76.3609 328.452 69.8368 329.631 69.501C330.811 69.1673 335.479 72.2514 335.479 72.2514L337.779 74.8832Z" fill="#16243F"/>
<path d="M330.676 78.3794C330.549 80.7036 326.223 82.3301 323.897 82.2034C321.572 82.0768 319.789 80.0883 319.916 77.7642C320.042 75.438 322.031 73.6547 324.357 73.7814C326.681 73.9101 330.803 76.0533 330.676 78.3794Z" fill="#16243F"/>
<path d="M215.118 30.9439L225.697 60.3596C226.146 61.6081 227.312 62.4546 228.637 62.4968L259.884 63.4678C262.912 63.5623 264.158 67.3964 261.764 69.2521L237.055 88.4042C236.007 89.2164 235.563 90.5876 235.933 91.8602L244.665 121.877C245.511 124.786 242.25 127.155 239.745 125.452L213.894 107.872C212.798 107.126 211.357 107.126 210.261 107.872L184.41 125.452C181.905 127.155 178.646 124.786 179.49 121.877L188.222 91.8602C188.592 90.5876 188.147 89.2164 187.1 88.4042L162.391 69.2521C159.998 67.3964 161.243 63.5623 164.27 63.4678L195.518 62.4968C196.843 62.4546 198.009 61.6081 198.457 60.3596L209.036 30.9439C210.062 28.093 214.093 28.093 215.118 30.9439Z" fill="#274597"/>
<path d="M140.85 131.107V140.116C140.85 147.411 146.763 153.323 154.057 153.323H154.322C161.616 153.323 167.529 147.411 167.529 140.116V131.107H140.85Z" fill="#EFB50D"/>
<path d="M307.865 197.538C299.982 208.202 284.947 210.456 274.283 202.575C263.62 194.692 261.364 179.657 269.247 168.993C277.128 158.33 292.163 156.074 302.827 163.957C313.492 171.838 315.746 186.873 307.865 197.538Z" fill="#274597"/>
<path d="M312.901 204.633C309.047 204.633 303.82 203.686 296.733 201.077C282.201 195.727 252.552 181.041 253.666 169.787C254.05 165.913 256.08 163.227 259.383 162.222C263.571 160.947 269.416 162.68 272.15 166L271.032 166.922C268.933 164.379 263.805 162.393 259.806 163.609C257.061 164.445 255.437 166.631 255.111 169.93C254.18 179.327 279.696 193.258 297.235 199.715C316.482 206.799 320.957 201.388 321.987 198.735C322.696 196.906 322.501 194.71 321.468 192.858C320.386 190.922 317.905 188.398 312.232 187.357L312.493 185.929C318.722 187.072 321.5 189.943 322.734 192.15C323.995 194.408 324.216 197 323.34 199.259C322.564 201.256 320.173 204.633 312.901 204.633Z" fill="#EFB50D"/>
<path d="M247.948 212.762C247.948 214.499 246.538 215.906 244.803 215.906C243.066 215.906 241.659 214.499 241.659 212.762C241.659 211.027 243.066 209.617 244.803 209.617C246.538 209.617 247.948 211.027 247.948 212.762Z" fill="#EFB50D"/>
<path d="M329.699 169.6C329.699 170.469 328.995 171.172 328.127 171.172C327.258 171.172 326.554 170.469 326.554 169.6C326.554 168.732 327.258 168.028 328.127 168.028C328.995 168.028 329.699 168.732 329.699 169.6Z" fill="#16243F"/>
<path d="M229.662 146.733C229.662 148.633 228.122 150.171 226.222 150.171C224.324 150.171 222.784 148.633 222.784 146.733C222.784 144.833 224.324 143.293 226.222 143.293C228.122 143.293 229.662 144.833 229.662 146.733Z" fill="#F14449"/>
<path d="M315.179 366.823V352.118H355.474V307.614H368.289C375.583 307.614 381.496 301.703 381.496 294.409V294.141C381.496 286.847 375.583 280.936 368.289 280.936H355.474V242.361H245.714V285.128H258.525C265.817 285.128 271.73 291.041 271.73 298.333V298.6C271.73 305.895 265.817 311.808 258.525 311.808H245.714V352.118H288.5V366.823C288.5 374.115 294.413 380.028 301.707 380.028H301.972C309.266 380.028 315.179 374.115 315.179 366.823Z" fill="#4BC084"/>
</svg>
