<svg width="440" height="374" viewBox="0 0 440 374" fill="none" xmlns="http://www.w3.org/2000/svg">
<path d="M205.03 300.926C211.902 296.345 213.607 295.517 215.474 291.602C216.628 289.174 215.7 286.998 213.92 285.086C213.071 284.175 212.311 282.891 209.547 282.756C199.806 282.276 200.066 291.932 197.824 294.121C196.319 295.588 194.657 297.133 192.637 297.704C187.459 299.166 182.142 301.379 179.007 305.752C176.142 309.747 176.254 315.849 179.857 319.683C183.119 323.151 193.813 327.47 199.621 318.457C205.03 310.065 201.672 303.165 205.03 300.926Z" fill="#F14449"/>
<path d="M201.448 35.2633C188.356 20.2221 184.024 7.54843 168.44 11.7113C158.284 14.4241 157.37 25.8641 168.045 31.0984C175.247 34.6309 192.204 40.6182 199.806 39.6383C200.836 39.5073 204.283 38.5191 201.448 35.2633Z" fill="#274597"/>
<path d="M354.637 55.2642C367.778 54.1991 376.221 56.8682 380.121 46.9406C382.661 40.4727 376.934 35.4985 369.961 39.1246C365.255 41.5712 355.415 48.245 352.951 52.6742C352.619 53.2733 351.791 55.4952 354.637 55.2642Z" fill="#274597"/>
<path d="M280.787 260.061C281.418 280.755 276.562 293.786 291.824 300.687C301.768 305.184 310.023 296.597 304.888 285.371C301.425 277.796 291.734 261.836 284.983 257.625C284.068 257.055 280.65 255.58 280.787 260.061Z" fill="#5C87CD"/>
<path d="M91.3433 74.3393C91.1124 61.158 94.3099 52.9009 84.6507 48.3802C78.3555 45.4344 73.0297 50.8351 76.2065 58.0249C78.3493 62.8763 84.3865 73.1202 88.6513 75.8559C89.2276 76.2283 91.3932 77.1935 91.3433 74.3393Z" fill="#5C87CD"/>
<path d="M156.936 301.241C152.906 307.001 148.937 309.562 151.689 314.54C153.482 317.784 157.472 317.122 158.357 313.023C158.952 310.259 159.555 303.947 158.573 301.43C158.44 301.089 157.809 299.994 156.936 301.241Z" fill="#16243F"/>
<path d="M414.242 227.376C420.368 235.322 422.164 241.816 430.117 240.191C435.297 239.13 436.098 233.413 430.893 230.465C427.381 228.477 419.043 224.963 415.196 225.227C414.676 225.263 412.914 225.656 414.242 227.376Z" fill="#274597"/>
<path d="M47.2331 115.419C40.5613 107.925 38.3123 101.574 30.4943 103.756C25.4015 105.179 25.0062 110.937 30.4048 113.511C34.0476 115.248 42.6125 118.165 46.4321 117.63C46.9501 117.557 48.6789 117.041 47.2331 115.419Z" fill="#16243F"/>
<path d="M331.469 33.5157C344.162 23.0514 354.709 19.7602 351.618 6.81402C349.606 -1.61985 340.192 -2.62675 335.641 6.06092C332.568 11.9234 327.257 25.7746 327.897 32.0657C327.983 32.9166 328.721 35.7813 331.469 33.5157Z" fill="#F14449"/>
<path d="M47.2787 235.813C36.1029 240.65 27.9271 240.824 27.4652 250.665C27.1656 257.076 33.6522 259.724 38.6743 254.482C42.0611 250.943 48.6851 242.182 49.5214 237.579C49.6358 236.955 49.6982 234.766 47.2787 235.813Z" fill="#5C87CD"/>
<path d="M165.316 190.782C154.874 194.768 143.18 189.536 139.192 179.097C135.206 168.658 140.438 156.962 150.878 152.976C161.317 148.987 173.013 154.22 176.999 164.659C180.987 175.1 175.755 186.794 165.316 190.782ZM124.989 85.1821C77.1094 103.467 53.1163 157.103 71.4008 204.986C89.6853 252.865 143.322 276.858 191.202 258.574C239.084 240.289 263.075 186.653 244.792 138.773C226.508 90.8907 172.871 66.8997 124.989 85.1821Z" fill="#5C87CD"/>
<path d="M153.012 94.5169L112.908 109.831L105.176 89.5801C100.99 78.6165 106.482 66.3339 117.446 62.1482L117.847 61.9943C128.811 57.8085 141.091 63.3028 145.279 74.2664L153.012 94.5169Z" fill="#5C87CD"/>
<path d="M115.307 107.01L88.2332 140.323L71.4112 126.653C62.3033 119.251 60.9198 105.867 68.3218 96.7595L68.5923 96.4267C75.9943 87.3188 89.3754 85.9374 98.4833 93.3373L115.307 107.01Z" fill="#5C87CD"/>
<path d="M88.8989 136.68L82.1106 179.068L60.7056 175.639C49.1178 173.784 41.2269 162.885 43.0826 151.297L43.1513 150.875C45.007 139.285 55.9061 131.396 67.4938 133.254L88.8989 136.68Z" fill="#5C87CD"/>
<path d="M80.8644 175.581L96.1781 215.685L75.9276 223.417C64.964 227.605 52.6815 222.111 48.4957 211.147L48.3418 210.746C44.1561 199.782 49.6504 187.502 60.614 183.314L80.8644 175.581Z" fill="#5C87CD"/>
<path d="M93.3572 213.286L126.67 240.36L113 257.182C105.598 266.29 92.2151 267.673 83.1072 260.272L82.7743 260.001C73.6685 252.601 72.285 239.218 79.6849 230.11L93.3572 213.286Z" fill="#5C87CD"/>
<path d="M123.03 239.695L165.415 246.483L161.987 267.89C160.131 279.477 149.234 287.366 137.644 285.511L137.222 285.442C125.634 283.586 117.743 272.687 119.601 261.099L123.03 239.695Z" fill="#5C87CD"/>
<path d="M161.929 247.728L202.032 232.415L209.765 252.665C213.953 263.628 208.458 275.912 197.495 280.097L197.093 280.251C186.13 284.437 173.849 278.943 169.664 267.979L161.929 247.728Z" fill="#5C87CD"/>
<path d="M199.633 235.236L226.708 201.923L243.532 215.595C252.637 222.995 254.021 236.378 246.621 245.486L246.348 245.819C238.949 254.927 225.565 256.308 216.457 248.908L199.633 235.236Z" fill="#5C87CD"/>
<path d="M226.042 205.563L232.83 163.178L254.237 166.606C265.825 168.462 273.714 179.361 271.858 190.948L271.789 191.371C269.934 202.961 259.035 210.849 247.447 208.994L226.042 205.563Z" fill="#5C87CD"/>
<path d="M234.076 166.664L218.763 126.561L239.013 118.828C249.977 114.64 262.259 120.135 266.445 131.098L266.599 131.5C270.785 142.463 265.292 154.744 254.329 158.932L234.076 166.664Z" fill="#5C87CD"/>
<path d="M221.584 128.96L188.27 101.886L201.943 85.0616C209.343 75.9557 222.726 74.5723 231.834 81.9743L232.167 82.2447C241.274 89.6446 242.658 103.028 235.256 112.136L221.584 128.96Z" fill="#5C87CD"/>
<path d="M191.913 102.551L149.525 95.7631L152.954 74.356C154.81 62.7682 165.709 54.8794 177.296 56.7351L177.721 56.8038C189.309 58.6595 197.197 69.5586 195.342 81.1463L191.913 102.551Z" fill="#5C87CD"/>
<path d="M360.93 178.644C352.854 180.087 345.138 174.71 343.696 166.636C342.252 158.56 347.628 150.843 355.704 149.402C363.78 147.958 371.494 153.336 372.938 161.41C374.381 169.486 369.004 177.202 360.93 178.644ZM346.336 96.9657C309.301 103.583 284.642 138.971 291.26 176.004C297.877 213.038 333.263 237.697 370.298 231.08C407.333 224.462 431.989 189.075 425.372 152.042C418.756 115.007 383.369 90.3501 346.336 96.9657Z" fill="#F14449"/>
<path d="M365.315 107.103L334.055 112.687L331.234 96.9012C329.709 88.3571 335.397 80.1895 343.943 78.6625L344.255 78.6084C352.802 77.0814 360.967 82.7712 362.494 91.3154L365.315 107.103Z" fill="#F14449"/>
<path d="M312.896 128.881L302.105 158.745L287.022 153.294C278.858 150.344 274.631 141.334 277.583 133.168L277.689 132.871C280.641 124.705 289.652 120.48 297.815 123.43L312.896 128.881Z" fill="#F14449"/>
<path d="M305.548 185.165L326.015 209.444L313.753 219.779C307.116 225.375 297.199 224.531 291.605 217.892L291.399 217.648C285.805 211.012 286.65 201.094 293.286 195.501L305.548 185.165Z" fill="#F14449"/>
<path d="M350.617 219.671L381.877 214.087L384.698 229.873C386.223 238.417 380.533 246.584 371.989 248.111L371.677 248.166C363.131 249.693 354.965 244.002 353.438 235.458L350.617 219.671Z" fill="#F14449"/>
<path d="M403.035 197.893L413.828 168.029L428.91 173.48C437.074 176.43 441.301 185.44 438.349 193.605L438.243 193.903C435.291 202.068 426.281 206.294 418.117 203.344L403.035 197.893Z" fill="#F14449"/>
<path d="M410.385 141.608L389.918 117.33L402.179 106.995C408.816 101.399 418.733 102.243 424.327 108.882L424.533 109.125C430.127 115.762 429.283 125.679 422.646 131.273L410.385 141.608Z" fill="#F14449"/>
<path d="M278.528 64.3325C274.871 62.1835 273.649 57.4797 275.796 53.8224C277.945 50.1672 282.649 48.9439 286.306 51.0929C289.962 53.2399 291.185 57.9457 289.036 61.601C286.889 65.2583 282.183 66.4795 278.528 64.3325ZM300.253 27.3516C283.485 17.501 261.908 23.1076 252.057 39.8755C242.206 56.6434 247.813 78.2211 264.579 88.0717C281.347 97.9223 302.924 92.3157 312.775 75.5478C322.626 58.782 317.019 37.2043 300.253 27.3516Z" fill="#EFB50D"/>
<path d="M308.935 33.4763L291.784 23.399L296.873 14.7383C299.627 10.0491 305.66 8.48262 310.349 11.2371L310.522 11.3369C315.209 14.0913 316.778 20.1265 314.023 24.8157L308.935 33.4763Z" fill="#EFB50D"/>
<path d="M275.118 22.4859L257.816 32.3011L252.86 23.5635C250.176 18.8328 251.837 12.8246 256.565 10.1409L256.738 10.0431C261.469 7.35945 267.479 9.01958 270.161 13.7483L275.118 22.4859Z" fill="#EFB50D"/>
<path d="M248.691 46.2771L248.541 66.1676L238.495 66.0927C233.059 66.0511 228.684 61.6095 228.723 56.1714L228.725 55.9716C228.767 50.5335 233.209 46.1606 238.647 46.2001L248.691 46.2771Z" fill="#EFB50D"/>
<path d="M256.083 81.0591L273.233 91.1344L268.145 99.795C265.39 104.484 259.357 106.053 254.668 103.298L254.495 103.196C249.808 100.442 248.239 94.4089 250.994 89.7198L256.083 81.0591Z" fill="#EFB50D"/>
<path d="M289.899 92.0474L307.202 82.2342L312.157 90.9697C314.841 95.7005 313.181 101.711 308.452 104.394L308.279 104.492C303.549 107.174 297.538 105.516 294.855 100.785L289.899 92.0474Z" fill="#EFB50D"/>
<path d="M316.324 68.2584L316.476 48.3658L326.52 48.4428C331.958 48.4844 336.333 52.926 336.292 58.3621V58.5618C336.25 63.9999 331.809 68.3749 326.37 68.3333L316.324 68.2584Z" fill="#EFB50D"/>
<path d="M375.59 259.385L367.314 261.703L369.738 270.355L378.012 268.037L375.59 259.385Z" fill="#E89473"/>
<path d="M393.034 367.346L392.745 371.871L407.965 372.841C407.965 372.841 409.222 369.739 404 368.499C398.778 367.257 396.394 366.651 396.394 366.651L393.034 367.346Z" fill="#16243F"/>
<path d="M366.493 365.658L366.206 370.182L350.986 369.213C350.986 369.213 350.133 365.978 355.469 365.41C360.805 364.839 363.247 364.542 363.247 364.542L366.493 365.658Z" fill="#16243F"/>
<path d="M390.817 223.918C390.817 223.918 387.856 219.417 391.241 217.8C394.628 216.186 396.808 222.31 396.808 222.31L390.817 223.918Z" fill="#F4A277"/>
<path d="M370.004 304.844L396.379 301.858L403.303 335.147L401.218 367.908L393.03 367.388C393.03 367.388 390.733 357.063 391.077 345.538C391.156 342.863 392.119 335.608 392.119 335.608L384.43 316.789C384.161 316.132 383.541 315.686 382.832 315.641H382.809C382.102 315.595 381.43 315.959 381.08 316.577L361.504 332.259C361.504 332.259 365.419 336.549 366.166 346.06C366.898 355.407 366.133 365.676 366.133 365.676L357.944 365.154L350.314 327.97L370.004 304.844Z" fill="#F14449"/>
<path d="M390.309 278.853C383.5 275.26 377.024 276.451 381.265 266.005C384.831 257.224 391.755 249.075 392.158 246.636C392.562 244.201 390.182 224.347 390.182 224.347L396.808 222.311L401.766 244.658C402.001 246.32 401.892 247.284 401.655 248.332L395.164 265.293L390.309 278.853Z" fill="#EFB50D"/>
<path d="M397.276 220.366L388.112 223.13L389.242 226.871L398.404 224.106L397.276 220.366Z" fill="#274597"/>
<path d="M343.515 234.594C343.515 234.594 346.155 229.898 342.664 228.521C339.173 227.143 337.423 233.406 337.423 233.406L343.515 234.594Z" fill="#F4A277"/>
<path d="M365.024 285.935C368.975 279.33 375.126 276.983 366.076 270.259C358.469 264.607 349.685 260.465 348.075 258.591C346.465 256.717 342.853 235.837 342.853 235.837L335.765 234.533L337.679 260.547C338.341 262.087 338.934 262.854 339.683 263.627L353.831 276.871L365.024 285.935Z" fill="#EFB50D"/>
<path d="M336.046 231.908L345.283 234.413L344.262 238.182L335.025 235.679L336.046 231.908Z" fill="#274597"/>
<path d="M364.185 268.327L381.392 263.506C385.482 262.362 389.67 264.981 390.429 269.159L396.752 302.418L369.149 305.775L359.371 277.78C357.903 273.827 360.125 269.464 364.185 268.327Z" fill="#EFB50D"/>
<path d="M383.25 306.462L371.309 263.828L372.969 263.363L384.91 305.996L383.25 306.462Z" fill="#221311"/>
<path d="M372.07 267.944L374.797 267.18L383.211 289.975L381.596 294.737C381.446 295.178 380.901 295.328 380.546 295.028L376.722 291.793L372.07 267.944Z" fill="#4BC084"/>
<path d="M371.02 269.446C371.459 271.009 373.079 271.92 374.642 271.482C376.204 271.046 377.117 269.423 376.678 267.86C376.241 266.298 374.621 265.387 373.058 265.824C371.496 266.263 370.583 267.884 371.02 269.446Z" fill="#4BC084"/>
<path d="M373.058 265.824C373.058 265.824 378.981 271.01 380.179 270.946C381.378 270.882 380.987 263.687 380.987 263.687L373.058 265.824Z" fill="#274597"/>
<path d="M373.065 265.822C373.065 265.822 370.697 273.332 369.638 273.898C368.581 274.465 365.18 268.116 365.18 268.116L373.065 265.822Z" fill="#274597"/>
<path d="M361.618 254.829C362.8 259.044 367.903 264.108 372.118 262.926C376.335 261.747 378.066 254.768 376.886 250.554C375.705 246.337 371.33 243.878 367.115 245.057C362.9 246.239 360.439 250.614 361.618 254.829Z" fill="#F4A277"/>
<path d="M370.35 251.9C366.499 252.98 362.821 254.009 361.246 254.45C359.671 254.891 354.039 252.314 356.561 247.832C359.082 243.351 369.255 243.99 371.496 245.25C373.737 246.512 372.8 251.213 370.35 251.9Z" fill="#221311"/>
<path d="M375.424 260.242L374.265 256.104C374.265 256.104 376.433 252.252 374.831 250.402C373.231 248.551 371.321 251.386 371.321 251.386L368.667 249.154C368.667 249.154 365.411 249.118 364.348 247.252C363.285 245.386 365.005 241.39 367.081 241.078C369.158 240.768 380.554 243.794 381.457 245.572C382.36 247.346 378.9 255.753 378.9 255.753L375.424 260.242Z" fill="#221311"/>
<path d="M274.423 336.405L251.78 321.251L238.528 326.02L230.103 316.498C228.653 319.679 229.408 328.366 229.302 329.005L233.877 355.78C232.399 355.615 228.461 353.709 222.892 354.409C214.415 355.47 210.233 355.449 210.233 355.449L209.688 361.22C209.688 361.22 237.043 364.921 239.749 362.475C242.088 360.361 245.084 342.064 245.92 336.788C246.145 335.382 248.219 335.209 248.762 335.561L271.034 343.578C271.034 343.578 272.314 352.062 275.081 356.633C279.503 363.943 282.566 369.693 282.566 369.693L289.084 368.809L278.711 341.756C277.848 339.584 276.354 337.722 274.423 336.405Z" fill="#F4A277"/>
<path d="M282.395 369.121L283.252 373.163L296.848 370.278C296.848 370.278 297.191 367.249 292.304 367.44C287.415 367.633 282.395 369.121 282.395 369.121Z" fill="#AC4441"/>
<path d="M185.094 283.351C185.094 283.351 184.078 278.545 180.86 279.699C177.642 280.854 180.207 286.197 180.207 286.197L185.094 283.351Z" fill="#F4A277"/>
<path d="M211.498 355.379L206.794 354.611L203.692 368.16C203.692 368.16 206.295 369.745 208.178 365.231C210.06 360.714 211.498 355.379 211.498 355.379Z" fill="#AC4441"/>
<path d="M220.978 318.268C223.021 311.557 227.945 308.128 218.463 304.172C210.491 300.845 200.774 300.098 198.937 298.796C197.102 297.493 185.776 283.216 185.776 283.216L180.207 286.197L191.493 303.745C192.417 304.964 193.109 305.511 193.942 306.029L209.085 312.711L220.978 318.268Z" fill="#16243F"/>
<path d="M178.649 285.253L186.317 281.094L188.015 284.224L180.346 288.381L178.649 285.253Z" fill="#4BC084"/>
<path d="M230.155 257.746C230.155 257.746 226.547 254.413 229.187 252.238C231.825 250.065 235.102 255.004 235.102 255.004L230.155 257.746Z" fill="#F4A277"/>
<path d="M241.786 306.446C234.973 304.764 229.508 307.24 230.962 297.069C232.185 288.519 236.517 279.787 236.338 277.543C236.159 275.3 229.689 258.264 229.689 258.264L235.102 255.004L244.401 273.681C244.973 275.1 245.09 275.974 245.111 276.954L243.099 293.385L241.786 306.446Z" fill="#16243F"/>
<path d="M235.087 253.181L227.592 257.642L229.41 260.701L236.908 256.241L235.087 253.181Z" fill="#4BC084"/>
<path d="M252.723 321.528L229.302 329.005L233.876 355.78C233.876 355.78 246.44 357.558 258.103 352.819C269.763 348.078 278.097 340.572 278.097 340.572C278.097 340.572 278.224 338.466 274.756 336.397C271.288 334.327 252.723 321.528 252.723 321.528Z" fill="#EFB50D"/>
<path d="M230.925 294.603L216.763 302.65C213.399 304.562 209.457 309.166 211.673 312.339L227.923 323.727L230.248 334.493L251.622 322.346L243.463 314.409L241.102 296.568C239.485 293.081 234.266 292.707 230.925 294.603Z" fill="#16243F"/>
<path d="M244.53 335.038L225.892 301.565L227.396 300.726L246.034 334.2L244.53 335.038Z" fill="#274597"/>
<path d="M218.155 302.401C219.822 306.139 224.205 307.821 227.943 306.154C231.684 304.488 233.365 300.106 231.698 296.366C230.032 292.626 225.649 290.944 221.91 292.611C218.17 294.277 216.489 298.661 218.155 302.401Z" fill="#E89473"/>
<path d="M218.165 295.829L224.974 291.959L229.021 299.08L222.21 302.95L218.165 295.829Z" fill="#E89473"/>
<path d="M224.18 283.863C226.15 287.333 226.152 293.885 222.684 295.856C219.214 297.827 213.589 294.47 211.616 291.003C209.644 287.533 210.859 283.123 214.329 281.152C217.797 279.18 222.208 280.395 224.18 283.863Z" fill="#F4A277"/>
<path d="M218.825 296.272L216.892 292.869C216.892 292.869 213.008 291.799 212.836 289.576C212.665 287.352 215.725 287.934 215.725 287.934C215.725 287.934 227.889 281.269 227.858 278.785C227.835 276.827 213.308 277.432 211.772 278.577C210.239 279.721 204.889 289.041 205.459 290.765C206.029 292.488 213.691 295.642 213.691 295.642L218.825 296.272Z" fill="#F14449"/>
<path d="M80.5066 257.166L86.9058 262.194L81.6466 268.884L75.2495 263.854L80.5066 257.166Z" fill="#5E221E"/>
<path d="M45.0444 353.196L42.0674 356.29L52.4755 366.302C52.4755 366.302 55.2799 364.83 52.2654 360.74C49.2509 356.647 47.8987 354.749 47.8987 354.749L45.0444 353.196Z" fill="#F14449"/>
<path d="M80.0551 220.617C80.0551 220.617 84.2783 217.754 81.9025 215.113C79.5267 212.468 75.3992 217.037 75.3992 217.037L80.0551 220.617Z" fill="#F4A277"/>
<path d="M15.0162 283.713L13.4621 279.71L0 284.936C0 284.936 0.153934 288.102 5.13437 287.089C10.1148 286.077 12.4053 285.647 12.4053 285.647L15.0162 283.713Z" fill="#F14449"/>
<path d="M68.7296 331.274L68.8148 299.904L56.551 290.341L59.8318 277.545C56.2494 278.152 49.2156 283.865 48.606 284.146L29.1357 300.87C28.4138 299.503 25.7925 295.264 24.7918 294.086C19.0354 287.326 14.7436 283.156 14.7436 283.156L8.15295 286.409C8.15295 286.409 22.2247 311.736 25.9049 312.639C29.0879 313.419 46.5714 305.331 51.5976 302.976C52.9353 302.349 54.2958 304.03 54.3083 304.702L58.6896 327.877C58.6896 327.877 53.3201 332.329 51.0005 337.374C47.2891 345.44 44.6533 353.676 44.6533 353.676L50.3784 358.286L68.7296 331.274Z" fill="#16243F"/>
<path d="M87.2388 269.123L73.9348 258.665C70.7747 256.179 66.1604 256.951 63.9801 260.329L48.6061 284.145L68.688 299.934L88.0189 279.138C90.738 276.215 90.378 271.591 87.2388 269.123Z" fill="#F14449"/>
<path d="M60.5682 268.855C67.8288 268.181 73.0609 271.571 73.1399 260.896C73.2065 251.921 70.1067 242.28 70.6393 240.002C71.1719 237.724 80.4546 221.222 80.4546 221.222L75.3992 217.037L62.9523 234.787C62.1431 236.155 61.8913 237.035 61.7165 238.04L61.2402 255.231L60.5682 268.855Z" fill="#F14449"/>
<path d="M75.6948 215.166L82.7077 220.909L80.3631 223.771L73.3502 218.027L75.6948 215.166Z" fill="#274597"/>
<path d="M122.391 253.901C122.391 253.901 124.178 249.12 127.305 250.806C130.434 252.49 126.97 257.581 126.97 257.581L122.391 253.901Z" fill="#F4A277"/>
<path d="M80.1176 284.223C79.0566 277.01 74.5277 272.725 84.8838 270.128C93.5881 267.944 103.688 268.682 105.777 267.628C107.866 266.573 121.709 253.656 121.709 253.656L126.97 257.581L112.659 273.865C111.521 274.973 110.724 275.427 109.79 275.832L93.197 280.353L80.1176 284.223Z" fill="#F14449"/>
<path d="M128.717 256.851L121.484 251.394L119.256 254.347L126.489 259.805L128.717 256.851Z" fill="#274597"/>
<path d="M87.2388 269.123L73.9348 258.665C70.7747 256.179 66.1604 256.951 63.9801 260.329L48.6061 284.145L68.688 299.934L88.0189 279.138C90.738 276.215 90.378 271.591 87.2388 269.123Z" fill="#F14449"/>
<path d="M56.7611 295.592L55.4069 294.529L81.3201 261.57L82.6744 262.632L56.7611 295.592Z" fill="#16243F"/>
<path d="M80.4796 265.928L78.3721 264.27L62.7422 281.158L62.4281 285.907C62.399 286.347 62.8213 286.678 63.2395 286.545L67.758 285.103L80.4796 265.928Z" fill="white"/>
<path d="M80.854 267.624C79.9033 268.832 78.1558 269.04 76.9471 268.092C75.7384 267.141 75.5304 265.392 76.479 264.185C77.4298 262.976 79.1772 262.766 80.3859 263.717C81.5946 264.665 81.8027 266.415 80.854 267.624Z" fill="white"/>
<path d="M80.3859 263.716C80.3859 263.716 73.3231 266.105 72.2974 265.612C71.2718 265.121 74.2259 258.971 74.2259 258.971L80.3859 263.716Z" fill="#274597"/>
<path d="M80.3797 263.713C80.3797 263.713 79.7264 271.139 80.4463 272.019C81.1661 272.9 86.446 268.579 86.446 268.579L80.3797 263.713Z" fill="#274597"/>
<path d="M94.3806 258.247C91.8176 261.507 85.5182 264.085 82.2582 261.521C78.9983 258.958 80.0156 252.229 82.5786 248.969C85.1396 245.71 89.86 245.145 93.1179 247.708C96.3778 250.269 96.9436 254.989 94.3806 258.247Z" fill="#F4A277"/>
<path d="M80.3401 257.974L82.8553 254.775C82.8553 254.775 82.3581 250.62 84.4301 249.582C86.5001 248.544 87.1451 251.717 87.1451 251.717C87.1451 251.717 98.3334 260.797 100.711 259.79C102.586 259 96.2945 245.263 94.5907 244.238C92.8869 243.212 81.8214 241.727 80.3859 242.952C78.9525 244.177 78.9296 252.786 78.9296 252.786L80.3401 257.974Z" fill="#292B6C"/>
</svg>
