<svg width="30" height="27" viewBox="0 0 30 27" fill="none" xmlns="http://www.w3.org/2000/svg">
<path d="M15 0C6.8685 0 0 6.18165 0 13.5C0 20.8183 6.8685 27 15 27C23.1315 27 30 20.8183 30 13.5C30 6.18165 23.1315 0 15 0ZM15 6.75C17.5905 6.75 19.5 8.4672 19.5 10.8C19.5 13.1328 17.5905 14.85 15 14.85C12.411 14.85 10.5 13.1328 10.5 10.8C10.5 8.4672 12.411 6.75 15 6.75ZM7.341 19.9422C8.6865 18.1602 10.9305 16.9722 13.5 16.9722H16.5C19.071 16.9722 21.3135 18.1602 22.659 19.9422C20.742 21.789 18.0225 22.95 15 22.95C11.9775 22.95 9.258 21.789 7.341 19.9422Z" fill="black"/>
</svg>
